<svg width="351" height="144" viewBox="0 0 351 144" fill="none" xmlns="http://www.w3.org/2000/svg">
<path d="M60 106H51.264L16.128 52.72V106H7.392V38.992H16.128L51.264 92.176V38.992H60V106ZM168.78 77.488C168.78 79.344 168.652 81.072 168.396 82.672H125.1C125.42 86.256 126.444 89.328 128.172 91.888C129.9 94.384 132.044 96.272 134.604 97.552C137.164 98.832 139.852 99.472 142.668 99.472C146.764 99.472 150.156 98.608 152.844 96.88C155.532 95.088 157.324 92.72 158.22 89.776H167.628C166.22 94.832 163.468 98.96 159.372 102.16C155.276 105.296 150.188 106.864 144.108 106.864C139.82 106.864 135.852 105.872 132.204 103.888C128.62 101.904 125.9 99.216 124.044 95.824V106H116.46V95.92C114.54 99.184 111.852 101.84 108.396 103.888C104.94 105.872 101.004 106.864 96.588 106.864C91.916 106.864 87.66 105.712 83.82 103.408C80.044 101.104 77.068 97.872 74.892 93.712C72.716 89.552 71.628 84.816 71.628 79.504C71.628 74.128 72.716 69.424 74.892 65.392C77.132 61.296 80.172 58.128 84.012 55.888C87.852 53.648 92.204 52.528 97.068 52.528C101.356 52.528 105.164 53.456 108.492 55.312C111.884 57.104 114.636 59.696 116.748 63.088V53.392H124.044V63.088C128.588 56.048 135.276 52.528 144.108 52.528C148.972 52.528 153.26 53.648 156.972 55.888C160.748 58.064 163.66 61.072 165.708 64.912C167.756 68.688 168.78 72.88 168.78 77.488ZM159.756 76.336C159.756 72.944 158.988 70.032 157.452 67.6C155.98 65.104 153.932 63.216 151.308 61.936C148.748 60.592 145.9 59.92 142.764 59.92C138.156 59.92 134.156 61.392 130.764 64.336C127.436 67.28 125.548 71.28 125.1 76.336H159.756ZM98.316 99.184C101.58 99.184 104.556 98.416 107.244 96.88C109.996 95.28 112.172 93.008 113.772 90.064C115.372 87.056 116.172 83.568 116.172 79.6C116.172 75.632 115.372 72.176 113.772 69.232C112.172 66.288 109.996 64.048 107.244 62.512C104.556 60.912 101.58 60.112 98.316 60.112C95.052 60.112 92.076 60.88 89.388 62.416C86.7 63.952 84.556 66.192 82.956 69.136C81.356 72.08 80.556 75.536 80.556 79.504C80.556 83.536 81.356 87.056 82.956 90.064C84.556 93.008 86.7 95.28 89.388 96.88C92.076 98.416 95.052 99.184 98.316 99.184ZM205.805 52.432C212.205 52.432 217.389 54.384 221.357 58.288C225.325 62.128 227.309 67.696 227.309 74.992V106H218.669V76.24C218.669 70.992 217.357 66.992 214.733 64.24C212.109 61.424 208.525 60.016 203.981 60.016C199.373 60.016 195.693 61.456 192.941 64.336C190.253 67.216 188.909 71.408 188.909 76.912V106H180.173V53.392H188.909V60.88C190.637 58.192 192.973 56.112 195.917 54.64C198.925 53.168 202.221 52.432 205.805 52.432ZM238.316 79.6C238.316 74.16 239.404 69.424 241.58 65.392C243.756 61.296 246.764 58.128 250.604 55.888C254.508 53.648 258.956 52.528 263.948 52.528C270.412 52.528 275.724 54.096 279.884 57.232C284.108 60.368 286.892 64.72 288.236 70.288H278.828C277.932 67.088 276.172 64.56 273.548 62.704C270.988 60.848 267.788 59.92 263.948 59.92C258.956 59.92 254.924 61.648 251.852 65.104C248.78 68.496 247.244 73.328 247.244 79.6C247.244 85.936 248.78 90.832 251.852 94.288C254.924 97.744 258.956 99.472 263.948 99.472C267.788 99.472 270.988 98.576 273.548 96.784C276.108 94.992 277.868 92.432 278.828 89.104H288.236C286.828 94.48 284.012 98.8 279.788 102.064C275.564 105.264 270.284 106.864 263.948 106.864C258.956 106.864 254.508 105.744 250.604 103.504C246.764 101.264 243.756 98.096 241.58 94C239.404 89.904 238.316 85.104 238.316 79.6ZM345.204 53.392L313.524 130.768H304.5L314.868 105.424L293.652 53.392H303.348L319.86 96.016L336.18 53.392H345.204Z" fill="black"/>
<path d="M347 132L6 70L114.5 8L347 132ZM347 132H161L300.5 8" stroke="#F1F1F3" stroke-width="8" stroke-linecap="round" stroke-linejoin="round"/>
<path d="M347 132L6 70L114.5 8L347 132ZM347 132H161L300.5 8" stroke="#61EACA" stroke-width="3" stroke-linecap="round" stroke-linejoin="round"/>
</svg>
